<?xml version="1.0" encoding="UTF-8" standalone="no"?>
<svg
   version="1.1"
   id="layer"
   x="0px"
   y="0px"
   viewBox="0 0 485 100"
   xml:space="preserve"
   width="485"
   height="100"
   sodipodi:docname="logo.svg"
   inkscape:version="1.4 (e7c3feb100, 2024-10-09)"
   xmlns:inkscape="http://www.inkscape.org/namespaces/inkscape"
   xmlns:sodipodi="http://sodipodi.sourceforge.net/DTD/sodipodi-0.dtd"
   xmlns:xlink="http://www.w3.org/1999/xlink"
   xmlns="http://www.w3.org/2000/svg"
   xmlns:svg="http://www.w3.org/2000/svg"><sodipodi:namedview
   id="namedview1"
   pagecolor="#ffffff"
   bordercolor="#000000"
   borderopacity="0.25"
   inkscape:showpageshadow="2"
   inkscape:pageopacity="0.0"
   inkscape:pagecheckerboard="0"
   inkscape:deskcolor="#d1d1d1"
   inkscape:zoom="3.35"
   inkscape:cx="473.8806"
   inkscape:cy="50"
   inkscape:window-width="1707"
   inkscape:window-height="1039"
   inkscape:window-x="0"
   inkscape:window-y="0"
   inkscape:window-maximized="1"
   inkscape:current-layer="layer" /><defs
   id="defs18"><linearGradient
     id="a"><stop
       offset="0"
       stop-color="#ff1300"
       id="stop1" /><stop
       offset="1"
       stop-color="#ff6e01"
       id="stop2" /></linearGradient><linearGradient
     xlink:href="#a"
     id="linearGradient11"
     gradientUnits="userSpaceOnUse"
     gradientTransform="matrix(1.3694251,0,0,1.3695928,-606.79421,-713.54906)"
     x1="460.702"
     y1="533.83099"
     x2="521.85101"
     y2="595.22498" /></defs>
<style
   type="text/css"
   id="style1">
	.st0{fill:#0091E2;}
</style>
<path
   id="path12"
   style="fill:#ffffff;stroke-linejoin:round;paint-order:stroke fill markers"
   d="m 43.259766,0.078125 c -2.06964,3.7843e-4 -3.900577,1.3413802 -4.525391,3.3144531 l -2.162109,6.8320309 c -1.961204,0.848407 -3.92239,1.696476 -5.882813,2.544922 -2.74882,-0.598916 -5.577697,-1.277126 -8.705078,-1.654297 -1.545222,-0.186096 -3.083533,0.396973 -4.117187,1.560547 -0.684454,0.770181 -0.448954,0.574248 -0.589844,0.779297 -0.140891,0.205049 -0.309194,0.454206 -0.511719,0.757813 -0.40505,0.607212 -0.942277,1.422587 -1.574219,2.386718 -1.263883,1.928263 -2.900002,4.443067 -4.529297,6.953125 -3.2585871,5.020116 -6.1740158,9.525424 -6.6445309,10.267578 -0.2696186,0.425276 -0.7479285,1.105798 -0.9257812,2.419922 -0.1778528,1.314125 0.3233634,2.799484 0.7167969,3.472657 0.018501,0.03166 0.095473,0.156907 0.1191406,0.197265 -0.039408,0.0101 -0.067646,-10e-4 -0.1074219,0.0098 -1.9751222,0.535003 -4.43702121,3.08951 -4.59179688,5.599609 -0.10098912,1.637812 0.0565502,2.23802 0.23242188,4.019531 0.17587171,1.781512 0.44681242,4.055481 0.81054688,6.539063 0.7274688,4.967165 1.76220852,10.661126 3.41210942,15.150391 0.00702,0.02023 0.014186,0.04041 0.021484,0.06055 3.5755441,9.340199 9.1047482,16.690796 16.4589842,21.228516 0.0039,0.002 0.0078,0.0039 0.01172,0.0059 8.402,5.152168 20.630706,7.554704 34.335938,7.554684 6.198829,0 12.397518,-0.562973 18.52539,-1.68945 l 0.0078,-0.002 c 8.650227,-1.57368 16.955098,-4.580552 24.611328,-8.945313 0.0098,-0.0058 0.01955,-0.01168 0.0293,-0.01758 6.358382,-3.684973 12.061042,-8.377881 16.898432,-13.863281 7.28503,-8.190599 11.7736,-17.106044 15.07813,-25.140625 8.37982,-0.506054 14.28259,-3.978119 17.58008,-7.248047 2.4079,-2.253445 4.18307,-4.985815 5.40234,-7.912109 0.0379,-0.08939 0.0731,-0.179933 0.10547,-0.271485 l 0.60352,-1.748047 c 0.68923,-1.989047 -0.0136,-4.194449 -1.72657,-5.417968 l -1.41211,-1.00586 0.28125,0.216797 c -1.35536,-1.12948 -5.95251,-4.193359 -14.86718,-4.193359 -0.83192,0 -1.6336,0.160471 -2.46094,0.214844 -1.38143,-4.138852 -3.64728,-7.364313 -5.76563,-9.664063 -1.40871,-1.529346 -2.76435,-2.674681 -3.80664,-3.4707031 -0.52114,-0.3980112 -0.96644,-0.7091948 -1.28906,-0.9277344 -0.16131,-0.1092698 -0.29345,-0.1967737 -0.37109,-0.2480469 -0.0776,-0.051273 -0.30313,-0.2503106 0.19531,0.1484375 -0.18386,-0.1470601 -0.37841,-0.28024 -0.58203,-0.3984375 l -2.08594,-1.2089844 c -2.14363,-1.2440301 -4.88352,-0.6298728 -6.29101,1.4101563 l -1.34571,1.9492185 c -0.03,0.04378 -0.0593,0.08805 -0.0879,0.132813 -1.96648,3.067683 -3.44165,6.484461 -4.31055,10.039062 -6.5e-4,0.0039 -0.001,0.0078 -0.002,0.01172 -0.37903,1.57025 -0.57542,3.142186 -0.67578,4.703125 -0.47171,-0.731834 -0.86354,-1.340102 -1.3418,-2.082031 -1.61416,-2.504078 -3.21353,-4.981061 -4.44726,-6.878907 -0.61687,-0.948921 -1.140737,-1.750664 -1.539064,-2.351562 -0.199163,-0.300449 -0.365452,-0.548143 -0.507813,-0.755859 -0.142358,-0.207717 0.03261,-0.0801 -0.595703,-0.78711 -1.033654,-1.163574 -2.571965,-1.746643 -4.117187,-1.560547 -3.127459,0.377182 -5.954989,1.055434 -8.703125,1.654297 -1.960419,-0.848441 -3.921606,-1.696513 -5.882813,-2.544922 L 77.451172,3.3925781 C 76.826358,1.4195052 74.995421,0.07850343 72.925781,0.078125 Z M 366.00977,16.925781 c -4.71329,0 -8.63891,3.937156 -8.7793,8.570313 -0.001,0.04816 -0.002,0.09635 -0.002,0.144531 v 0.06641 14.21875 c -4.05362,-2.919998 -8.86333,-4.673039 -13.9336,-4.787109 -0.34728,-0.0078 -0.71621,-0.0059 -1.09375,0.002 -10.29423,0.007 -19.16681,6.085975 -23.43164,14.787109 -1.28017,-2.586957 -2.89341,-4.980468 -4.94531,-6.970703 -5.07515,-5.060406 -11.77906,-7.615234 -18.44727,-7.615234 -6.68008,0 -13.39963,2.559791 -18.47851,7.638672 -0.87026,0.870255 -1.58314,1.85405 -2.3125,2.824219 V 25.640625 c 0,-2.260459 -0.87269,-4.52308 -2.53125,-6.181641 -0.0491,-0.04862 -0.0992,-0.09615 -0.15039,-0.142578 -1.60889,-1.474826 -3.78837,-2.356472 -6.02149,-2.376953 -4.6681,-0.104076 -8.63787,3.651885 -8.78711,8.277344 -10e-4,0.05142 -0.002,0.102857 -0.002,0.154297 v 0.269531 11.222656 c -10.17589,-3.55384 -21.95736,-0.667492 -29.0625,8.181641 -0.008,0.01038 -0.0157,0.0208 -0.0234,0.03125 -1.00886,1.277887 -1.86692,2.652621 -2.62304,4.080078 -0.16618,-0.386013 -0.29371,-0.835056 -0.47266,-1.195312 -1.83226,-3.838541 -4.67183,-7.031269 -8.26563,-9.216797 -3.6744,-2.284842 -8.02508,-3.365236 -12.67968,-3.365235 -4.72252,0 -9.18688,1.115053 -13.05078,3.388672 -0.97918,0.563427 -1.76886,1.361859 -2.6504,2.050781 -0.77537,-1.455552 -1.90115,-2.493465 -3.08007,-3.255859 -2.72043,-1.852406 -5.86383,-2.335938 -9.41211,-2.335938 -3.77536,0 -7.43338,0.917096 -10.67383,2.726563 -1.70311,-1.61131 -3.96942,-2.269531 -5.92969,-2.269531 -2.07455,0 -4.48104,0.684232 -6.17578,2.378906 -1.69472,1.694758 -2.38086,4.101199 -2.38086,6.175781 v 34.046875 c 0,2.091148 0.64653,4.5156 2.38086,6.25 0.0447,0.04518 0.0903,0.08946 0.13672,0.132813 1.73181,1.598529 4.03034,2.171875 6.03906,2.171875 2.06402,0 4.50587,-0.652654 6.22852,-2.466797 1.63816,-1.687189 2.32617,-4.043563 2.32617,-6.087891 V 56.044922 c 0,-1.315874 0.24446,-1.818337 0.84961,-2.453125 0.77627,-0.766338 1.89563,-1.411235 3.7832,-1.818359 1.81298,-0.391036 4.05981,-0.395085 6.8125,0.164062 l -0.12304,-0.02539 c 0.40528,0.09353 0.86794,-0.0027 1.29492,0.04102 -1.00788,2.937086 -1.68946,6.021317 -1.68946,9.345703 0,4.816763 1.10455,9.364537 3.36719,13.324219 0.0154,0.02619 0.031,0.05223 0.0469,0.07813 2.28881,3.83527 5.51727,6.960645 9.4414,9.167969 0.0253,0.01456 0.0506,0.02888 0.0762,0.04297 4.04416,2.17762 8.6426,3.232422 13.52344,3.232422 2.91064,0 5.86385,-0.53875 8.81446,-1.539062 l 0.004,-0.002 c 2.9799,-0.993732 5.6263,-2.329231 7.86719,-4.097657 1.15501,-0.889702 2.14971,-2.337571 2.65385,-3.930566 0.4876,-1.399612 2.12168,-1.558285 3.08471,-0.288643 4.74835,6.260176 12.0206,10.550119 20.45089,10.693819 10.50326,0.179035 19.66129,-5.963463 23.9668,-14.873047 4.17071,8.608433 12.83465,14.699573 23.01172,14.873047 10.52101,0.179335 19.69407,-5.981903 23.99023,-14.916016 4.31132,8.484564 13.01396,14.389589 23.10742,14.447266 0.009,2.6e-5 0.0182,2.6e-5 0.0274,0 5.73253,0 11.25209,-1.92464 15.80664,-5.369141 0.41359,1.011618 1.03026,1.942953 1.81054,2.744141 1.65558,1.75968 4.00836,2.691406 6.24024,2.691406 2.23275,0 4.58653,-0.932354 6.24219,-2.693359 1.51217,-1.549181 2.62098,-3.789461 2.45898,-6.38086 l 0.01,0.294922 v -9.544922 l 14.02148,15.728516 c 0.11028,0.123864 0.22698,0.241864 0.34961,0.353516 1.51235,1.374864 3.70107,2.360162 6.13086,2.220703 0.86432,-0.01393 2.06046,-0.16753 3.36719,-0.833985 0.91026,-0.423839 1.84702,-1.028674 2.56445,-1.746094 0.10178,-0.101656 0.19889,-0.207885 0.29102,-0.318359 0.33376,-0.40052 1.02119,-1.121095 1.58789,-2.443359 0.23493,-0.548132 0.27766,-1.27193 0.40625,-1.921875 4.71285,4.526798 11.07328,7.353515 18.08203,7.353515 6.23196,0 12.30796,-2.215905 17.07812,-6.328125 0.0882,-0.07626 0.17353,-0.15574 0.25586,-0.238281 l 0.13477,-0.134766 -0.39063,0.351563 c 0.56922,-0.455385 1.28705,-1.155631 1.91602,-2.240234 0.36139,-0.697317 1.82578,-0.6395 1.86523,0.01953 0.14609,4.828304 4.36166,8.575864 9.05664,8.433594 l 0.008,-0.002 c 4.55122,-0.146799 8.27517,-3.875671 8.42187,-8.423828 10e-4,-0.05077 0.002,-0.101555 0.002,-0.152343 V 61.527344 c 0,-1.227984 0.20979,-2.275454 0.67383,-3.330078 0.0127,-0.02852 0.025,-0.05717 0.0371,-0.08594 0.44444,-1.06667 0.98857,-1.871675 1.77344,-2.615234 0.031,-0.02889 0.0616,-0.05819 0.0918,-0.08789 0.75793,-0.75793 1.76237,-1.429363 2.71484,-1.853515 1.20463,-0.473034 2.31724,-0.720704 3.4043,-0.720704 1.22846,0 2.41501,0.221044 3.63476,0.660157 l -0.51562,-0.220703 c 1.09725,0.548611 2.49021,0.904296 3.80273,0.904296 0.88105,0 2.20638,-0.137977 3.61524,-0.857422 0.90238,-0.419997 1.84222,-1.019952 2.56445,-1.742187 0.7864,-0.786394 1.37805,-1.592427 1.88086,-2.765625 0.39556,-0.922993 0.65618,-2.005661 0.68359,-3.25 0.10918,-2.403736 -0.91055,-4.689829 -2.42968,-6.208984 -0.0491,-0.04861 -0.0992,-0.09615 -0.1504,-0.142578 -1.20765,-1.106995 -2.69932,-2.042315 -4.35546,-2.601563 -1.49821,-0.525139 -3.03792,-0.865972 -4.57813,-1.037109 -1.38367,-0.153739 -2.76829,-0.230466 -4.15234,-0.230469 -2.92903,0 -5.94623,0.480069 -8.83399,1.576172 -0.88258,0.314359 -1.68741,0.743027 -2.51172,1.144531 -1.67793,-1.643203 -3.95806,-2.660124 -6.40625,-2.585938 h -0.008 c -4.55114,0.1468 -8.27701,3.872727 -8.42383,8.423829 -10e-4,0.05077 -0.002,0.101555 -0.002,0.152343 v 1.771485 c -4.90891,-6.421249 -12.53167,-10.417668 -20.82031,-10.482422 -0.0124,-4.8e-5 -0.0247,-4.8e-5 -0.0371,0 -6.9735,0 -13.28902,2.795602 -17.98828,7.273437 -0.12892,-0.701275 -0.18728,-1.470185 -0.4336,-2.044922 -0.56477,-1.317849 -1.2492,-2.038894 -1.58789,-2.445312 -0.0921,-0.110473 -0.18923,-0.216703 -0.29101,-0.318359 -0.78003,-0.780046 -1.58622,-1.376212 -2.76368,-1.88086 -0.97401,-0.417436 -2.0888,-0.718747 -3.41601,-0.71875 -1.6036,0 -3.20316,0.44689 -4.59375,1.28125 -0.0487,0.02908 -0.0969,0.05904 -0.14453,0.08984 L 374.72266,46.662109 V 25.707031 c 0,-2.260488 -0.87569,-4.524099 -2.53125,-6.179687 -1.55514,-1.555136 -3.7201,-2.601563 -6.18164,-2.601563 z m -200.80274,21.00586 0.26953,0.267578 c -0.0474,-0.05138 -0.11746,-0.05788 -0.16601,-0.107422 -0.0479,-0.04679 -0.054,-0.114416 -0.10352,-0.160156 z m 193.92383,3.398437 0.23242,0.195313 c -0.06,-0.05365 -0.13102,-0.0915 -0.1914,-0.144532 -0.018,-0.01441 -0.0228,-0.03648 -0.041,-0.05078 z m 44.61719,2.40625 0.008,0.248047 c 0,-0.036 -0.0191,-0.05611 -0.0195,-0.0918 -0.002,-0.0517 0.0144,-0.104714 0.0117,-0.15625 z m 23.34179,0.574219 0.0996,0.03516 c -0.0203,-0.0071 -0.0402,-0.0086 -0.0605,-0.01563 -0.0141,-0.0046 -0.025,-0.01495 -0.0391,-0.01953 z m -238.14453,1.683594 -0.0469,0.197265 c 0.007,-0.02769 -0.001,-0.06193 0.006,-0.08984 0.008,-0.03571 0.0334,-0.07185 0.041,-0.107421 z M 160.10742,48.375 c 0.081,0.131126 0.16835,0.258229 0.26172,0.380859 -0.0927,0.142772 -0.17489,0.289035 -0.26172,0.435547 z m 276.00586,2.472656 0.0547,0.07227 c -0.008,-0.01045 -0.0195,-0.01691 -0.0274,-0.02734 -0.0112,-0.01481 -0.016,-0.03012 -0.0273,-0.04492 z m -217.29297,0.298828 0.0195,0.04297 c -0.002,-0.0043 -0.006,-0.0074 -0.008,-0.01172 -0.005,-0.01002 -0.007,-0.02124 -0.0117,-0.03125 z m -31.23242,0.605469 c -0.003,0.0067 -0.003,0.01478 -0.006,0.02148 -0.003,0.0059 -0.009,0.0097 -0.0117,0.01562 z m 172.37891,2.431641 -0.14258,0.148437 c 0.0275,-0.02751 0.0335,-0.06405 0.0605,-0.0918 0.0237,-0.02521 0.0586,-0.03107 0.082,-0.05664 z m 77.96679,6.322265 c 0.004,0.102701 0.0235,0.203792 0.0254,0.306641 h -0.37695 c 0.12214,-0.09639 0.23947,-0.198728 0.35156,-0.306641 z m 9.5625,0.792969 0.008,0.40625 c 0.002,-0.104901 -0.0246,-0.203894 -0.0234,-0.308594 -0.002,-0.0331 0.0177,-0.06458 0.0156,-0.09766 z m -225.21289,0.08008 c -1.7e-4,0.01 0.002,0.0193 0.002,0.0293 -4e-5,0.01714 -0.004,0.03364 -0.004,0.05078 z m 222.6875,6.394532 -0.14843,0.142578 c 0.0246,-0.02259 0.0323,-0.05913 0.0566,-0.08203 0.0268,-0.02609 0.0653,-0.03406 0.0918,-0.06055 z m -132.8457,0.621093 -0.0332,0.07617 c 0.005,-0.01201 0.006,-0.02509 0.0117,-0.03711 0.006,-0.01408 0.0156,-0.02496 0.0215,-0.03906 z m 94.42773,3.734375 c 0.0134,0.01895 0.0354,0.02993 0.0488,0.04883 0.0235,0.03121 0.0348,0.06458 0.0586,0.0957 z m -44.39648,2.501953 -0.002,0.148438 c 8.4e-4,-0.02679 -0.0142,-0.04943 -0.0137,-0.07617 2.3e-4,-0.02515 0.0156,-0.04709 0.0156,-0.07227 z m -8.11328,0.390625 -0.36133,0.291016 c -0.028,0.02035 -0.0375,0.01679 -0.0742,0.03125 0.14021,-0.1171 0.29819,-0.200166 0.43555,-0.322266 z m 56.46094,1.097657 c 0.0338,0.02582 0.0697,0.03901 0.10351,0.06445 0.0166,0.01183 0.0263,0.0312 0.043,0.04297 z M 216.79102,76.75 216.75,76.78125 c 0.006,-0.0046 -0.0342,0.0097 -0.0332,0.0078 0.0217,-0.01613 0.0525,-0.02281 0.0742,-0.03906 z m 118.27343,1.285156 c 0.014,0.0062 0.029,0.0076 0.043,0.01367 0.0155,0.0065 0.0274,0.01695 0.043,0.02344 z m 86.31641,1.669922 c 0.0245,9e-5 0.0498,0.01172 0.0742,0.01172 l -0.19922,-0.0039 c 0.0426,0.0018 0.0825,-0.0092 0.125,-0.0078 z" /><path
   style="display:inline;fill:url(#linearGradient11);stroke-linejoin:round;paint-order:stroke fill markers"
   d="m 43.26021,4.8254473 -2.816764,8.8973047 c -3.069023,1.327131 -6.139041,2.656065 -9.207677,3.984071 -3.256106,-0.685654 -6.521055,-1.479907 -9.820609,-1.877842 -0.473355,0.532642 -13.120767,20.110358 -13.3889007,20.533292 -0.2681338,0.422933 -0.3067372,0.633441 -0.1190732,0.954538 0.1876639,0.321098 1.6326417,2.733048 1.9403077,3.207168 0.3076652,0.474119 0.3442242,0.521474 0.8666962,0.718343 0.522472,0.196867 46.008874,16.179136 46.575183,16.357921 0.605372,0.191119 1.018256,0.230334 1.596752,0.0059 0.578496,-0.224557 45.501355,-15.876384 47.143225,-16.558981 1.78028,-0.740141 3.49563,-2.672321 2.43808,-4.157801 C 107.40987,35.403762 95.29097,16.415094 94.770098,15.828984 91.470556,16.226919 88.207572,17.021172 84.95144,17.706826 81.882781,16.37882 78.8128,15.049886 75.743765,13.722755 L 72.925049,4.8254473 Z m 73.81952,6.5646407 -1.34494,1.950068 c -1.68015,2.621011 -2.95592,5.578305 -3.69517,8.602549 -1.41132,5.846875 -0.53654,11.358787 2.4205,16.063169 -1.69216,3.162244 -2.53262,5.005628 -6.99604,7.126822 L 59.528339,61.968863 c -0.929292,0.326521 -1.942128,0.326521 -2.87142,0 0,0 -47.9815208,-16.792373 -49.4583159,-17.298796 -1.4767951,-0.506424 -3.1423,-0.321618 -3.2325442,1.141932 -0.090244,1.463551 1.3702064,16.152158 4.1734175,23.7795 3.2930666,8.602298 8.1998536,14.987871 14.5171686,18.885788 7.123781,4.368354 18.749946,6.85354 31.855005,6.85354 5.91408,0 11.828662,-0.537074 17.675536,-1.612368 8.131861,-1.478516 15.926774,-4.301961 23.117765,-8.401492 5.914079,-3.427478 11.222699,-7.795232 15.725469,-12.902847 7.59422,-8.535089 12.09861,-18.077626 15.39168,-26.545513 h 1.34299 c 8.26625,0 13.37327,-3.293046 16.1959,-6.115676 1.88176,-1.747342 3.29418,-3.89929 4.30225,-6.318688 l 0.60512,-1.747057 -1.4113,-1.007242 c -0.40323,-0.336027 -4.03146,-3.091998 -11.82729,-3.091998 -2.01617,0 -4.10146,0.200777 -6.11762,0.536805 -1.47853,-10.282433 -10.01163,-15.255588 -10.34766,-15.52441 z m 148.72631,10.283239 c -2.15057,-0.06721 -3.89734,1.613755 -3.96456,3.697125 v 0.269378 19.086846 c -9.20715,-7.392598 -22.71534,-5.916041 -30.10794,3.291105 -3.02425,3.83071 -4.70437,8.535607 -4.70437,13.441606 -0.20161,11.828155 9.20681,21.573158 21.03497,21.774776 11.82816,0.201616 21.57317,-9.206806 21.77477,-21.034961 V 61.459387 25.63983 c 0,-1.075287 -0.40267,-2.085313 -1.14193,-2.824572 -0.80646,-0.73926 -1.81566,-1.141931 -2.89094,-1.141931 z m 100.20301,0 c -2.21778,0 -3.96567,1.748723 -4.03287,3.966503 v 0.06637 53.092976 c 0,1.075287 0.40462,2.081408 1.14388,2.820668 0.73926,0.806466 1.74733,1.210252 2.82262,1.210252 1.07528,0 2.08335,-0.403786 2.82262,-1.210252 0.73926,-0.73926 1.20915,-1.745381 1.14193,-2.820668 V 65.021822 l 4.638,-3.023679 17.67359,19.82471 c 0.73926,0.672055 1.68179,1.074448 2.68987,1.007242 0.53766,0 1.07556,-0.06692 1.54601,-0.335747 0.47044,-0.201615 0.87337,-0.471272 1.27661,-0.874505 0.33602,-0.403233 0.67094,-0.804231 0.87256,-1.274669 0.20163,-0.470437 0.33575,-1.008356 0.33575,-1.545999 0,-1.008083 -0.40349,-2.016992 -1.07557,-2.756251 l -16.39696,-18.48172 15.99485,-10.415976 c 1.07528,-0.672055 1.61321,-1.883415 1.546,-3.160319 0,-0.537644 -0.13609,-1.073608 -0.33771,-1.544047 -0.20161,-0.470437 -0.53651,-0.873388 -0.87254,-1.276621 -0.33602,-0.336027 -0.80621,-0.672887 -1.27663,-0.874505 -0.47044,-0.201615 -1.00835,-0.335747 -1.546,-0.335748 -0.73926,0 -1.47907,0.201894 -2.15112,0.605127 L 369.97555,55.410078 V 25.706199 c 0,-1.075286 -0.40268,-2.08336 -1.14193,-2.822621 -0.73926,-0.739259 -1.74928,-1.210251 -2.82457,-1.210251 z m -23.79121,18.212341 c -11.82815,0 -21.43708,9.61087 -21.43708,21.439029 0,11.828156 9.54339,21.371825 21.30434,21.43903 5.17482,0 10.14687,-1.814527 14.04478,-5.174804 0.80647,-0.739259 1.27857,-1.814816 1.27857,-2.957309 0.0673,-2.150574 -1.61375,-3.897346 -3.69712,-3.964552 h -0.26938 c -0.94087,0 -1.81399,0.268542 -2.55324,0.806185 -1.2097,1.075287 -2.55436,1.882023 -4.03288,2.486872 -1.4785,0.537643 -3.09226,0.806184 -4.63799,0.806184 -1.81455,0 -3.56105,-0.336303 -5.24117,-1.075562 -1.61294,-0.672055 -3.02341,-1.679291 -4.30031,-2.888989 -5.24202,-5.242023 -5.24314,-13.710134 -0.0683,-18.952157 0.0672,0.134411 0.0683,0.133578 0.0683,0.06637 1.20971,-1.209698 2.68737,-2.218886 4.30031,-2.890941 1.68012,-0.672054 3.42662,-1.073609 5.24117,-1.073609 1.61294,0 3.15949,0.268539 4.63799,0.806183 1.47852,0.604849 2.88956,1.411585 4.09925,2.486873 0.73926,0.604848 1.68072,0.874503 2.62155,0.874505 1.07529,0.0672 2.15168,-0.33742 2.89095,-1.143884 0.73926,-0.739261 1.14193,-1.813703 1.14193,-2.888989 0,-1.142493 -0.47044,-2.284417 -1.41131,-3.023677 -3.5913,-3.21326 -8.18588,-5.068219 -13.01021,-5.176756 -0.32162,-0.0072 -0.64673,-0.0084 -0.97015,0 z m -166.44479,0.08784 c -3.04664,0 -5.83921,0.709841 -8.37807,2.131605 -1.70278,0.953559 -3.17147,2.142309 -4.41742,3.552676 v -1.419118 c 0,-1.26943 -0.32956,-2.209385 -0.98967,-2.818717 -0.60931,-0.660105 -1.54928,-0.989673 -2.81871,-0.989673 -1.21866,0 -2.1586,0.329568 -2.81873,0.989673 -0.66009,0.660105 -0.98967,1.60006 -0.98967,2.818717 v 34.047122 c 0,1.269436 0.32959,2.232787 0.98967,2.892892 0.66013,0.609325 1.60007,0.913546 2.81873,0.913546 1.26943,0 2.2094,-0.32957 2.81871,-0.989674 0.66011,-0.660105 0.98967,-1.598109 0.98967,-2.816764 V 56.044485 c 0,-2.335758 0.7352,-4.264419 2.20774,-5.787738 1.52333,-1.523319 3.58068,-2.56468 6.17033,-3.123231 2.58964,-0.558551 5.50896,-0.507854 8.75871,0.152258 0.6601,0.152333 1.27048,0.17768 1.82905,0.07613 0.55854,-0.10155 1.04021,-0.329717 1.44644,-0.685159 0.457,-0.406218 0.76121,-0.965905 0.91354,-1.676785 0.35546,-1.370984 -0.22764,-2.539106 -1.75096,-3.503875 -1.47255,-1.015547 -3.73272,-1.522575 -6.77936,-1.522575 z m 119.60413,0.115169 c -5.47725,0 -10.95556,2.081677 -15.1223,6.248414 -4.03232,4.032327 -6.25036,9.477036 -6.25036,15.122295 -0.2016,11.828155 9.20875,21.573158 21.03691,21.774776 11.82816,0.201616 21.57315,-9.206806 21.77477,-21.034961 v -0.739815 c 0,-2.82263 -0.53902,-5.57747 -1.61431,-8.198482 -1.07528,-2.621013 -2.6882,-4.974854 -4.70437,-6.923813 -4.16673,-4.166737 -9.6431,-6.248414 -15.12034,-6.248414 z m 126.07703,0 c -11.82816,0 -21.37183,9.542549 -21.43903,21.370709 0,11.828155 9.61087,21.439028 21.43903,21.439028 5.10761,0 10.0805,-1.81453 13.97841,-5.174803 l 0.13468,-0.134689 c 0.33602,-0.268822 0.67289,-0.60596 0.87451,-1.009194 1.2769,-1.881752 0.80537,-4.366383 -1.00919,-5.643288 -1.54573,-1.00808 -3.56132,-0.806469 -4.90543,0.470437 -0.13441,0.13441 -0.5368,0.4696 -0.5368,0.536805 l -0.0683,0.06832 c -1.14249,0.940876 -2.41855,1.745104 -3.82987,2.215543 -1.47852,0.537642 -3.02507,0.808972 -4.63799,0.741767 -1.47853,0 -2.89095,-0.20301 -4.30226,-0.673446 -1.3441,-0.47044 -2.62099,-1.074444 -3.76348,-1.948116 -1.1425,-0.806465 -2.15085,-1.814816 -2.95732,-2.95731 -0.87365,-1.142494 -1.47656,-2.485756 -1.87979,-3.829862 H 438.794 c 1.0753,0 2.08141,-0.404625 2.82067,-1.143884 0.80647,-0.73926 1.2111,-1.747333 1.14389,-2.82262 0.0673,-2.889833 -0.47155,-5.712157 -1.47963,-8.33317 -3.42748,-7.930242 -11.22242,-13.105022 -19.82472,-13.172227 z m 47.04367,0 c -2.4194,0 -4.90624,0.40295 -7.19124,1.276621 -2.28498,0.806465 -4.36862,2.015594 -6.25037,3.494115 V 44.05323 c -0.0671,-2.21778 -1.94783,-3.899019 -4.16561,-3.831814 -2.08337,0.0672 -3.7646,1.748444 -3.83181,3.831814 v 34.878682 c 0.0671,2.217782 1.9498,3.899019 4.16756,3.831815 2.08338,-0.0672 3.76266,-1.748442 3.82986,-3.831815 V 61.527707 c 0,-1.814547 0.3363,-3.562989 1.07557,-5.243124 0.67205,-1.612931 1.61404,-3.024232 2.89094,-4.23393 1.20971,-1.209698 2.68822,-2.216936 4.23393,-2.888989 1.68015,-0.672055 3.42663,-1.075563 5.24117,-1.075563 1.81455,0 3.563,0.336025 5.24313,0.940874 0.53766,0.268822 1.07388,0.404068 1.67873,0.404068 0.53765,0 1.07557,-0.06887 1.546,-0.337699 0.47045,-0.201618 0.87339,-0.46932 1.27662,-0.872553 0.33603,-0.336028 0.67289,-0.808134 0.87451,-1.278573 0.20161,-0.470436 0.33575,-1.006404 0.33575,-1.544047 0.0671,-1.008081 -0.33631,-1.94867 -1.07556,-2.687931 -0.80648,-0.73926 -1.67986,-1.278292 -2.68794,-1.614319 -1.1425,-0.403234 -2.35274,-0.671773 -3.56243,-0.806185 -1.20971,-0.13441 -2.41911,-0.201056 -3.62881,-0.201059 z m -264.53182,0.03709 c -4.01139,0 -7.56647,0.914605 -10.66388,2.742587 -3.09742,1.7772 -5.53506,4.265549 -7.31226,7.464522 -1.72645,3.148191 -2.59033,6.802711 -2.59033,10.966444 0,4.112967 0.91463,7.769426 2.74259,10.968399 1.87878,3.148192 4.44315,5.63654 7.6929,7.464522 3.30052,1.7772 7.0584,2.664505 11.27292,2.664505 2.33574,0 4.77341,-0.430973 7.31227,-1.294188 2.58964,-0.863215 4.74647,-1.978681 6.47289,-3.349665 0.86322,-0.660105 1.26886,-1.447957 1.21806,-2.361943 -0.0509,-0.913994 -0.50711,-1.752542 -1.37032,-2.514201 -0.6601,-0.558552 -1.446,-0.812095 -2.35999,-0.761288 -0.86321,0 -1.67643,0.278866 -2.43808,0.837417 -1.01555,0.761659 -2.36112,1.448102 -4.03677,2.057427 -1.62487,0.558552 -3.22396,0.837411 -4.79806,0.837417 -2.8943,0 -5.45871,-0.635735 -7.69292,-1.905171 -2.23418,-1.26943 -3.98735,-2.993335 -5.25678,-5.176756 -0.84994,-1.461874 -1.40761,-3.065001 -1.6885,-4.800016 h 28.95626 c 1.01555,0 1.85409,-0.304214 2.5142,-0.913545 2.19094,-2.190965 0.40802,-9.615542 -1.29614,-13.023873 -1.47253,-3.097412 -3.62937,-5.509702 -6.4729,-7.236136 -2.84353,-1.777202 -6.24452,-2.666459 -10.20516,-2.666458 z m 0,6.550977 c 2.53887,0 4.69569,0.585035 6.4729,1.752913 1.77721,1.167875 3.14813,2.765022 4.11291,4.796111 0.68541,1.406885 1.13645,2.958952 1.36056,4.647759 h -25.35674 c 0.26129,-1.443649 0.68986,-2.793325 1.29809,-4.038729 1.06631,-2.234198 2.61667,-3.983446 4.64776,-5.252884 2.08187,-1.26943 4.57022,-1.90517 7.46452,-1.90517 z m 91.41112,1.292237 c 1.78093,0 3.56104,0.352337 5.24117,1.057994 1.61294,0.672054 3.02424,1.67929 4.23393,2.888988 1.2097,1.209699 2.21889,2.688205 2.89094,4.233931 1.41131,3.427478 1.41131,7.192068 0,10.417927 -0.67205,1.61293 -1.68124,3.024233 -2.89094,4.233931 -1.20969,1.209698 -2.68821,2.216934 -4.23393,2.888989 -3.36028,1.411314 -7.12403,1.411314 -10.48429,0 -3.22586,-1.344109 -5.77881,-3.964263 -7.12292,-7.12292 -1.41133,-3.293065 -1.41133,-7.057654 0,-10.417927 1.34411,-3.225862 3.89706,-5.711609 7.12292,-7.122919 1.68014,-0.705658 3.46218,-1.057994 5.24312,-1.057994 z m -46.97729,0.132736 c 1.78095,0 3.56299,0.35429 5.24312,1.059947 3.22586,1.411313 5.7788,3.963426 7.12291,7.189287 1.41132,3.225862 1.41132,6.990175 0,10.283238 -1.34411,3.225862 -3.89705,5.779925 -7.12291,7.191241 -3.36028,1.411314 -7.12403,1.411314 -10.48429,0 -3.22587,-1.344109 -5.71245,-3.964263 -7.05656,-7.12292 -1.41132,-3.293065 -1.41132,-7.057655 0,-10.417927 1.34411,-3.225861 3.89787,-5.778811 7.05656,-7.122919 1.68012,-0.705657 3.46022,-1.059947 5.24117,-1.059947 z m 172.98794,0.05075 c 1.41133,0 2.88983,0.203008 4.23394,0.673446 2.68822,0.873671 5.04066,2.62044 6.7208,4.905425 0.87366,1.142493 1.47767,2.485753 1.94812,3.829862 h -25.73933 c 0.40323,-1.411314 1.00614,-2.687369 1.87979,-3.829862 0.80647,-1.142492 1.81482,-2.150845 2.95732,-2.95731 1.1425,-0.806466 2.41938,-1.477676 3.76348,-1.948115 1.34411,-0.470438 2.82457,-0.673446 4.23588,-0.673446 z M 25.695939,55.458878 c 6.69555,2.309399 13.447459,4.603342 20.197545,6.896485 -0.101919,0.707327 -0.274851,1.40328 -0.513381,2.076949 -2.079292,5.628834 -8.328228,8.505982 -13.958892,6.428001 -5.631383,-2.078368 -8.511183,-8.327239 -6.431903,-13.95694 0.199357,-0.498509 0.435847,-0.980869 0.706631,-1.444495 z m 64.002812,0 c 0.270788,0.463626 0.50727,0.945986 0.706631,1.444495 2.079409,5.629331 -0.79909,11.87804 -6.429951,13.95694 -5.631047,2.078845 -11.88156,-0.798464 -13.960843,-6.428001 -0.238085,-0.673715 -0.409936,-1.369667 -0.51143,-2.076949 6.750088,-2.293149 13.50008,-4.587091 20.195593,-6.896485 z M 57.03561,67.161235 70.059483,72.324327 69.257204,88.773994 57.03561,93.763355 44.812066,88.773994 44.011737,72.324327 Z m 0,3.808391 -9.363836,3.71274 0.568037,11.665268 8.795799,3.589763 8.7958,-3.589763 0.568037,-11.665268 z"
   id="path13" />

















</svg>
