<?xml version="1.0" encoding="UTF-8" standalone="no"?>
<!-- Generator: Adobe Illustrator 19.2.1, SVG Export Plug-In . SVG Version: 6.00 Build 0)  -->

<svg
   version="1.1"
   id="layer"
   x="0px"
   y="0px"
   viewBox="0 0 480 100"
   xml:space="preserve"
   sodipodi:docname="redocker.svg"
   inkscape:version="1.4 (e7c3feb100, 2024-10-09)"
   width="480"
   height="100"
   xmlns:inkscape="http://www.inkscape.org/namespaces/inkscape"
   xmlns:sodipodi="http://sodipodi.sourceforge.net/DTD/sodipodi-0.dtd"
   xmlns:xlink="http://www.w3.org/1999/xlink"
   xmlns="http://www.w3.org/2000/svg"
   xmlns:svg="http://www.w3.org/2000/svg"><defs
   id="defs18"><linearGradient
     xlink:href="#a"
     id="b"
     x1="460.702"
     x2="521.85101"
     y1="533.83099"
     y2="595.22498"
     gradientTransform="matrix(1.9658287,0,0,1.9660692,-858.92119,-767.90501)"
     gradientUnits="userSpaceOnUse" /><linearGradient
     id="a"><stop
       offset="0"
       stop-color="#ff1300"
       id="stop1" /><stop
       offset="1"
       stop-color="#ff6e01"
       id="stop2" /></linearGradient><linearGradient
     xlink:href="#a"
     id="b-3"
     x1="460.702"
     x2="521.851"
     y1="533.831"
     y2="595.225"
     gradientTransform="matrix(1.1280691,0,0,1.1282072,-500.05445,-730.49697)"
     gradientUnits="userSpaceOnUse" /><linearGradient
     inkscape:collect="always"
     xlink:href="#a"
     id="linearGradient3"
     gradientUnits="userSpaceOnUse"
     gradientTransform="matrix(1.3702008,0,0,1.3703686,-610.83722,-713.95327)"
     x1="460.702"
     y1="533.831"
     x2="521.851"
     y2="595.225" /></defs><sodipodi:namedview
   id="namedview18"
   pagecolor="#ffffff"
   bordercolor="#000000"
   borderopacity="0.25"
   inkscape:showpageshadow="2"
   inkscape:pageopacity="0.0"
   inkscape:pagecheckerboard="0"
   inkscape:deskcolor="#d1d1d1"
   inkscape:zoom="1.3360627"
   inkscape:cx="263.08645"
   inkscape:cy="99.17199"
   inkscape:window-width="1707"
   inkscape:window-height="1039"
   inkscape:window-x="0"
   inkscape:window-y="0"
   inkscape:window-maximized="1"
   inkscape:current-layer="layer" />
<style
   type="text/css"
   id="style1">
	.st0{fill:#0091E2;}
</style>
<path
   id="path6"
   style="display:inline;fill:url(#linearGradient3);stroke-linejoin:round;paint-order:stroke fill markers"
   d="M 43.285156 4.828125 L 40.466797 13.730469 C 37.396035 15.058352 34.32428 16.388038 31.253906 17.716797 C 27.995955 17.030754 24.729157 16.236051 21.427734 15.837891 C 20.954111 16.370835 8.2995356 35.959639 8.03125 36.382812 C 7.7629643 36.805985 7.7243391 37.016612 7.9121094 37.337891 C 8.0998796 37.659171 9.5456757 40.072487 9.8535156 40.546875 C 10.161355 41.021263 10.197935 41.068645 10.720703 41.265625 C 11.243471 41.462604 56.755636 57.453925 57.322266 57.632812 C 57.92798 57.824039 58.341098 57.863356 58.919922 57.638672 C 59.498746 57.413988 104.44704 41.753295 106.08984 41.070312 C 107.87113 40.329752 109.58745 38.396477 108.5293 36.910156 C 107.47115 35.423835 95.345386 16.424333 94.824219 15.837891 C 91.522808 16.236051 88.257976 17.030754 85 17.716797 C 81.929602 16.388038 78.857883 15.058352 75.787109 13.730469 L 72.966797 4.828125 L 43.285156 4.828125 z M 117.14648 11.396484 L 115.80078 13.347656 C 114.11968 15.970152 112.84319 18.929121 112.10352 21.955078 C 110.6914 27.805265 111.56667 33.320299 114.52539 38.027344 C 112.83227 41.191379 111.99133 43.035807 107.52539 45.158203 L 59.5625 62.003906 C 58.632681 62.330612 57.619272 62.330612 56.689453 62.003906 C 56.689453 62.003906 8.6807566 45.202022 7.203125 44.695312 C 5.7254934 44.188601 4.0590453 44.373512 3.96875 45.837891 C 3.878455 47.302271 5.3397323 61.999197 8.1445312 69.630859 C 11.439463 78.238029 16.349029 84.627219 22.669922 88.527344 C 29.797738 92.898172 41.430487 95.384766 54.542969 95.384766 C 60.460399 95.384766 66.378331 94.847387 72.228516 93.771484 C 80.364983 92.292131 88.164311 89.467087 95.359375 85.365234 C 101.2768 81.935814 106.58843 77.565586 111.09375 72.455078 C 118.69227 63.915156 123.19921 54.367214 126.49414 45.894531 L 127.83789 45.894531 C 136.10883 45.894531 141.21874 42.599619 144.04297 39.775391 C 145.92579 38.027059 147.33901 35.873892 148.34766 33.453125 L 148.95312 31.705078 L 147.54102 30.697266 C 147.13756 30.361048 143.50727 27.603516 135.70703 27.603516 C 133.68972 27.603516 131.60325 27.804407 129.58594 28.140625 C 128.10658 17.852368 119.56864 12.876396 119.23242 12.607422 L 117.14648 11.396484 z M 262.25781 21.685547 C 260.10602 21.618297 258.35827 23.300216 258.29102 25.384766 L 258.29102 25.654297 L 258.29102 44.751953 C 249.07865 37.355168 235.56281 38.832561 228.16602 48.044922 C 225.14006 51.877802 223.45898 56.585364 223.45898 61.494141 C 223.25725 73.328995 232.671 83.079518 244.50586 83.28125 C 256.34072 83.48298 266.09125 74.069229 266.29297 62.234375 L 266.29297 61.494141 L 266.29297 25.654297 C 266.29297 24.578401 265.89007 23.567803 265.15039 22.828125 C 264.34347 22.088446 263.3337 21.685547 262.25781 21.685547 z M 362.51758 21.685547 C 360.29854 21.685547 358.54966 23.435261 358.48242 25.654297 L 358.48242 25.720703 L 358.48242 78.84375 C 358.48242 79.919646 358.88727 80.926337 359.62695 81.666016 C 360.36663 82.472938 361.37527 82.876953 362.45117 82.876953 C 363.52706 82.876953 364.5357 82.472938 365.27539 81.666016 C 366.01507 80.926337 366.48522 79.919646 366.41797 78.84375 L 366.41797 65.058594 L 371.05859 62.033203 L 388.74219 81.869141 C 389.48187 82.541576 390.42494 82.944197 391.43359 82.876953 C 391.97155 82.876953 392.50976 82.809993 392.98047 82.541016 C 393.45118 82.339287 393.85434 82.069477 394.25781 81.666016 C 394.59402 81.262554 394.92913 80.861329 395.13086 80.390625 C 395.3326 79.919921 395.4668 79.381697 395.4668 78.84375 C 395.4668 77.835096 395.06308 76.825615 394.39062 76.085938 L 377.98438 57.59375 L 393.98828 47.171875 C 395.06417 46.499439 395.60241 45.287393 395.53516 44.009766 C 395.53516 43.471817 395.399 42.93555 395.19727 42.464844 C 394.99554 41.994141 394.66044 41.590961 394.32422 41.1875 C 393.98801 40.851283 393.51757 40.514232 393.04688 40.3125 C 392.57617 40.110771 392.03795 39.976563 391.5 39.976562 C 390.76032 39.976562 390.02009 40.17857 389.34766 40.582031 L 366.48633 55.441406 L 366.48633 25.720703 C 366.48633 24.644808 366.08342 23.636163 365.34375 22.896484 C 364.60407 22.156806 363.59348 21.685547 362.51758 21.685547 z M 338.71289 39.908203 C 326.87804 39.908203 317.26367 49.524517 317.26367 61.359375 C 317.26367 73.19423 326.81247 82.743304 338.58008 82.810547 C 343.75783 82.810547 348.73269 80.994992 352.63281 77.632812 C 353.43974 76.893135 353.91211 75.816968 353.91211 74.673828 C 353.97941 72.522036 352.29744 70.774275 350.21289 70.707031 L 349.94336 70.707031 C 349.00196 70.707031 348.12834 70.975725 347.38867 71.513672 C 346.17829 72.589568 344.83288 73.396761 343.35352 74.001953 C 341.87418 74.539901 340.2595 74.808594 338.71289 74.808594 C 336.89732 74.808594 335.14983 74.4721 333.46875 73.732422 C 331.8549 73.059987 330.44364 72.05218 329.16602 70.841797 C 323.92103 65.596806 323.91987 57.123899 329.09766 51.878906 C 329.16486 52.013394 329.16602 52.012564 329.16602 51.945312 C 330.37641 50.734929 331.8549 49.725169 333.46875 49.052734 C 335.14983 48.380299 336.89732 47.978516 338.71289 47.978516 C 340.32675 47.978516 341.87418 48.247208 343.35352 48.785156 C 344.83288 49.390348 346.24471 50.197541 347.45508 51.273438 C 348.19476 51.878628 349.13675 52.148437 350.07812 52.148438 C 351.15402 52.215677 352.23102 51.810827 352.9707 51.003906 C 353.71038 50.264226 354.11328 49.189176 354.11328 48.113281 C 354.11328 46.970141 353.64257 45.82757 352.70117 45.087891 C 349.10784 41.872811 344.51065 40.016801 339.68359 39.908203 C 339.36179 39.901003 339.0365 39.899803 338.71289 39.908203 z M 175.57422 39.996094 C 172.52585 39.996094 169.73171 40.706337 167.19141 42.128906 C 165.48767 43.083005 164.01814 44.272428 162.77148 45.683594 L 162.77148 44.263672 C 162.77148 42.993523 162.44173 42.053036 161.78125 41.443359 C 161.17159 40.78288 160.23109 40.453125 158.96094 40.453125 C 157.74159 40.453125 156.80112 40.78288 156.14062 41.443359 C 155.48015 42.103838 155.15039 43.044325 155.15039 44.263672 L 155.15039 78.330078 C 155.15039 79.600233 155.48016 80.56413 156.14062 81.224609 C 156.80112 81.834279 157.74159 82.138672 158.96094 82.138672 C 160.23109 82.138672 161.17159 81.808915 161.78125 81.148438 C 162.44173 80.487959 162.77148 79.549423 162.77148 78.330078 L 162.77148 56.076172 C 162.77148 53.739091 163.5071 51.809338 164.98047 50.285156 C 166.50466 48.760974 168.56319 47.719024 171.1543 47.160156 C 173.7454 46.601289 176.66638 46.652014 179.91797 47.3125 C 180.57844 47.46492 181.18918 47.490279 181.74805 47.388672 C 182.30691 47.287065 182.78885 47.058769 183.19531 46.703125 C 183.65257 46.296677 183.95696 45.736673 184.10938 45.025391 C 184.46504 43.65363 183.8816 42.484846 182.35742 41.519531 C 180.88403 40.503409 178.62258 39.996094 175.57422 39.996094 z M 291.8457 40.111328 C 286.36535 40.111328 280.88394 42.194184 276.71484 46.363281 C 272.68023 50.397892 270.46094 55.845685 270.46094 61.494141 C 270.25922 73.328995 279.67491 83.079518 291.50977 83.28125 C 303.34463 83.48298 313.09514 74.069229 313.29688 62.234375 L 313.29688 61.494141 C 313.29688 58.669913 312.75754 55.913512 311.68164 53.291016 C 310.60575 50.668518 308.99192 48.313344 306.97461 46.363281 C 302.80552 42.194184 297.32604 40.111328 291.8457 40.111328 z M 417.99414 40.111328 C 406.15928 40.111328 396.61021 49.659282 396.54297 61.494141 C 396.54297 73.328995 406.15928 82.945312 417.99414 82.945312 C 423.10465 82.945312 428.08035 81.129754 431.98047 77.767578 L 432.11523 77.632812 C 432.45144 77.363838 432.7885 77.026509 432.99023 76.623047 C 434.26786 74.740229 433.79606 72.25419 431.98047 70.976562 C 430.43387 69.967911 428.41714 70.169637 427.07227 71.447266 C 426.93779 71.581752 426.53516 71.917132 426.53516 71.984375 L 426.4668 72.052734 C 425.32366 72.994142 424.04689 73.798826 422.63477 74.269531 C 421.15541 74.807478 419.60798 75.078962 417.99414 75.011719 C 416.51478 75.011719 415.10156 74.808594 413.68945 74.337891 C 412.34458 73.867185 411.06697 73.262839 409.92383 72.388672 C 408.78069 71.58175 407.77177 70.572828 406.96484 69.429688 C 406.09069 68.286547 405.48744 66.942524 405.08398 65.597656 L 435.34375 65.597656 C 436.41965 65.597656 437.42634 65.192802 438.16602 64.453125 C 438.97295 63.713446 439.3778 62.704802 439.31055 61.628906 C 439.37785 58.737436 438.83873 55.913513 437.83008 53.291016 C 434.40067 45.356282 426.60132 40.178571 417.99414 40.111328 z M 465.06445 40.111328 C 462.64368 40.111328 460.15543 40.514506 457.86914 41.388672 C 455.58286 42.195594 453.49804 43.405408 451.61523 44.884766 L 451.61523 44.078125 C 451.54813 41.859089 449.6663 40.176898 447.44727 40.244141 C 445.36272 40.311381 443.68052 41.993575 443.61328 44.078125 L 443.61328 78.976562 C 443.68038 81.1956 445.56418 82.87779 447.7832 82.810547 C 449.86776 82.743307 451.54799 81.061114 451.61523 78.976562 L 451.61523 61.5625 C 451.61523 59.746925 451.95173 57.997493 452.69141 56.316406 C 453.36384 54.702562 454.30636 53.290461 455.58398 52.080078 C 456.79438 50.869695 458.27372 49.861887 459.82031 49.189453 C 461.50141 48.517017 463.24888 48.113281 465.06445 48.113281 C 466.88003 48.113281 468.62947 48.449496 470.31055 49.054688 C 470.84851 49.323662 471.38504 49.458984 471.99023 49.458984 C 472.52818 49.458984 473.06641 49.390074 473.53711 49.121094 C 474.00782 48.919362 474.41099 48.651508 474.81445 48.248047 C 475.15067 47.911829 475.48772 47.439455 475.68945 46.96875 C 475.89118 46.498047 476.02539 45.961776 476.02539 45.423828 C 476.09249 44.415176 475.68889 43.474054 474.94922 42.734375 C 474.14229 41.994696 473.26842 41.455359 472.25977 41.119141 C 471.11663 40.715679 469.90569 40.446988 468.69531 40.3125 C 467.48492 40.178014 466.27483 40.111329 465.06445 40.111328 z M 202.08203 40.148438 C 198.06836 40.148438 194.51127 41.063561 191.41211 42.892578 C 188.31293 44.670785 185.87391 47.160543 184.0957 50.361328 C 182.36828 53.511302 181.50391 57.167892 181.50391 61.333984 C 181.50391 65.44928 182.41905 69.10781 184.24805 72.308594 C 186.12789 75.45857 188.69372 77.948327 191.94531 79.777344 C 195.2477 81.555551 199.00771 82.443359 203.22461 82.443359 C 205.56168 82.443359 208.00073 82.012141 210.54102 81.148438 C 213.13213 80.284734 215.29018 79.168636 217.01758 77.796875 C 217.88129 77.136396 218.28716 76.348098 218.23633 75.433594 C 218.18543 74.519083 217.72893 73.68006 216.86523 72.917969 C 216.20476 72.359101 215.41842 72.105414 214.50391 72.15625 C 213.64021 72.15625 212.82653 72.435274 212.06445 72.994141 C 211.04832 73.756232 209.70199 74.443064 208.02539 75.052734 C 206.3996 75.611602 204.7996 75.890619 203.22461 75.890625 C 200.32867 75.890625 197.76281 75.25453 195.52734 73.984375 C 193.29189 72.714226 191.53773 70.989345 190.26758 68.804688 C 189.41716 67.341986 188.85917 65.737951 188.57812 64.001953 L 217.55078 64.001953 C 218.56691 64.001953 219.40592 63.697567 220.06641 63.087891 C 222.25859 60.895685 220.47466 53.466902 218.76953 50.056641 C 217.29617 46.957474 215.13811 44.543818 212.29297 42.816406 C 209.44783 41.038198 206.04491 40.148437 202.08203 40.148438 z M 202.08203 46.703125 C 204.62233 46.703125 206.78038 47.288492 208.55859 48.457031 C 210.33681 49.625568 211.70851 51.223619 212.67383 53.255859 C 213.35963 54.663541 213.81093 56.216487 214.03516 57.90625 L 188.66406 57.90625 C 188.9255 56.461784 189.35431 55.111343 189.96289 53.865234 C 191.0298 51.62977 192.58104 49.879532 194.61328 48.609375 C 196.69633 47.339226 199.18609 46.703125 202.08203 46.703125 z M 291.8457 47.996094 C 293.62764 47.996094 295.40876 48.348631 297.08984 49.054688 C 298.70369 49.727122 300.11579 50.734929 301.32617 51.945312 C 302.53655 53.155696 303.54632 54.63504 304.21875 56.181641 C 305.63086 59.61106 305.63086 63.377783 304.21875 66.605469 C 303.54632 68.219313 302.53655 69.631414 301.32617 70.841797 C 300.11579 72.05218 298.63644 73.059987 297.08984 73.732422 C 293.72766 75.144536 289.96178 75.144536 286.59961 73.732422 C 283.37192 72.387552 280.81753 69.765914 279.47266 66.605469 C 278.06054 63.310539 278.06054 59.543817 279.47266 56.181641 C 280.81753 52.953952 283.37192 50.466798 286.59961 49.054688 C 288.2807 48.34863 290.06375 47.996094 291.8457 47.996094 z M 244.8418 48.128906 C 246.62376 48.128906 248.40681 48.483396 250.08789 49.189453 C 253.31558 50.601565 255.86997 53.155124 257.21484 56.382812 C 258.62696 59.610501 258.62696 63.376946 257.21484 66.671875 C 255.86997 69.899563 253.31558 72.455073 250.08789 73.867188 C 246.72571 75.279301 242.95983 75.279301 239.59766 73.867188 C 236.36997 72.522317 233.88198 69.900679 232.53711 66.740234 C 231.12499 63.445304 231.12499 59.678582 232.53711 56.316406 C 233.88198 53.088718 236.4372 50.534322 239.59766 49.189453 C 241.27874 48.483396 243.05984 48.128906 244.8418 48.128906 z M 417.92773 48.179688 C 419.33985 48.179688 420.81919 48.382811 422.16406 48.853516 C 424.85381 49.727682 427.20758 51.47544 428.88867 53.761719 C 429.76283 54.904859 430.36718 56.24888 430.83789 57.59375 L 405.08398 57.59375 C 405.48744 56.181637 406.09069 54.904859 406.96484 53.761719 C 407.77177 52.61858 408.78069 51.609656 409.92383 50.802734 C 411.06698 49.995811 412.34458 49.324221 413.68945 48.853516 C 415.03432 48.382811 416.51562 48.179688 417.92773 48.179688 z M 25.710938 55.490234 C 32.41028 57.800941 39.166012 60.096183 45.919922 62.390625 C 45.817945 63.098353 45.644915 63.7947 45.40625 64.46875 C 43.32578 70.100772 37.073305 72.979549 31.439453 70.900391 C 25.80488 68.820847 22.923449 62.568437 25.003906 56.935547 C 25.203376 56.436756 25.44 55.954122 25.710938 55.490234 z M 89.75 55.490234 C 90.020941 55.954122 90.257557 56.436756 90.457031 56.935547 C 92.537618 62.568066 89.65749 68.820315 84.023438 70.900391 C 78.389201 72.980414 72.135149 70.101475 70.054688 64.46875 C 69.816468 63.794654 69.64452 63.098308 69.542969 62.390625 C 76.296879 60.096177 83.050694 57.800936 89.75 55.490234 z M 57.068359 67.199219 L 70.099609 72.365234 L 69.296875 88.824219 L 57.068359 93.816406 L 44.837891 88.824219 L 44.037109 72.365234 L 57.068359 67.199219 z M 57.068359 71.009766 L 47.699219 74.724609 L 48.267578 86.396484 L 57.068359 89.988281 L 65.869141 86.396484 L 66.4375 74.724609 L 57.068359 71.009766 z " />

















</svg>
